<?xml version="1.0" encoding="utf-8"?>
<!-- Generator: Adobe Illustrator 27.5.0, SVG Export Plug-In . SVG Version: 6.00 Build 0)  -->
<svg version="1.1" id="Layer_1" xmlns="http://www.w3.org/2000/svg" xmlns:xlink="http://www.w3.org/1999/xlink" x="0px" y="0px"
	 viewBox="0 0 276.91 208.988" style="enable-background:new 0 0 276.91 208.988;" xml:space="preserve">
<g>
	<g>
		<path style="fill:#DD982B;" d="M272.608,20.384c-0.023-0.181-0.067-0.365-0.162-0.553c-0.499-0.989-1.669-1.606-2.614-2.085
			c-2.688-1.364-5.624-2.249-8.519-3.059c-10.816-3.027-21.847-5.193-32.965-6.76c-12.752-1.797-25.6-2.811-38.451-3.558
			c-13.121-0.762-26.257-1.446-39.404-1.173c-6.576,0.137-13.182,0.381-19.729,1.047c-0.664,0.068-1.327,0.145-1.99,0.222
			c-0.59,0.102-1.178,0.217-1.761,0.361c-2.229,0.551-4.269,1.636-6.414,2.432c-5.872,2.706-11.594,5.767-17.248,8.863
			c-8.943,4.897-17.986,9.609-26.867,14.62C58.308,40.997,40.875,52.36,23.922,64.524c-3.917,2.81-7.819,5.624-11.786,8.361
			c-2.541,1.753-5.868,3.891-7.332,6.813c-1.716,1.38,0.471,7.374,0.837,8.574c0.537,1.759,1.167,3.505,1.613,5.29
			c0.856,3.429,1.114,7.112,1.451,10.622c0.403,4.193,0.642,8.4,0.89,12.604c0.009,0.008,0.018,0.016,0.027,0.024
			c0,0,0.033,0.027,0.054,0.044c0.02,0.014,0.046,0.033,0.052,0.038c0.032,0.022,0.064,0.044,0.097,0.065
			c0.131,0.084,0.268,0.153,0.408,0.219c0.006,0.002,0.004,0.001,0.014,0.005c0.044,0.016,0.087,0.032,0.132,0.047
			c0.074,0.024,0.148,0.046,0.223,0.065c0.075,0.019,0.151,0.035,0.228,0.049c0.031,0.006,0.061,0.01,0.092,0.015
			c-0.149-0.026,0.005-0.001,0.03,0.002c0.155,0.014,0.312,0.018,0.468,0.011c0.02-0.001,0.039-0.003,0.059-0.005
			c1.096-1.667,2.537-3.118,4.285-3.884c1.05,0.198,1.985,0.334,2.92,0.988c1.004,0.703,1.756,1.672,2.347,2.735
			c1.219,2.194,1.793,4.712,2.069,7.187c0.557,4.998-0.959,10.463-3.696,14.644c-1.656,2.529-3.843,4.153-6.675,5.12
			c-0.028,0.001-0.055,0.01-0.082,0.015c-0.129,0.5-0.107,1.043,0.021,1.615c0.255,1.138,0.747,2.207,1.02,3.34
			c0.014,0.056,0.006,0.104,0.006,0.154c0.206,0.526,0.4,1.06,0.568,1.613c0.597,1.96,1.034,3.963,1.368,5.984
			c0.704,4.254,0.961,8.557,1.321,12.848c0.388,4.608,1.096,9.175,1.459,13.786c0.353,4.487,0.675,8.954,0.784,13.452
			c0.082,3.394,0.684,7.281,4.523,8.202c0.115,0.028,0.239,0.016,0.361-0.02c2.904,1.477,7.13,0.301,10.007-0.411
			c6.078-1.504,12.325-2.419,18.498-3.455c14.111-2.368,28.273-4.029,42.507-5.441c28.757-2.852,57.55-5.326,86.347-7.733
			c14.148-1.182,28.331-2.14,42.452-3.606c3.297-0.342,6.582-0.79,9.879-1.133c2.844-0.296,5.697-0.546,8.514-1.055
			c4.829-0.872,9.736-2.552,12.714-6.675c2.634-3.646,3.645-8.355,4.355-12.713c0.774-4.746,1.18-9.56,1.804-14.328
			c1.845-14.093,3.252-28.238,4.647-42.381c1.407-14.266,2.964-28.524,3.996-42.824c0.515-7.138,0.892-14.287,1.03-21.442
			c0.067-3.482-0.074-6.963-0.002-10.444c0.03-1.453,0.03-2.999,0.339-4.426c0.226-1.042,0.719-2.032,1.054-3.04
			C272.606,22.878,272.968,21.519,272.608,20.384z"/>
		<path style="fill:#FCBC39;" d="M30.564,128.912c-0.336,4.098-2.068,7.992-5.072,10.828c-2.711,2.559-6.565,4.215-10.362,4.446
			c1.683-0.703,3.181-1.962,4.325-3.304c1.962-2.302,3.279-5.097,4.134-7.983c1.562-5.272,1.527-10.919-1.196-15.822
			c-0.884-1.592-2.382-3.422-4.203-4.168c0.396-0.017,0.801-0.005,1.218,0.05c3.314,0.443,6.164,2.806,8.063,5.436
			C29.651,121.415,30.87,125.176,30.564,128.912z"/>
		<path style="fill:#FFEC88;" d="M271.391,22.235c-0.075,0.603-0.391,1.168-0.678,1.694c-0.133,0.243-0.274,0.48-0.418,0.716
			c-0.259,0.651-0.528,1.249-0.675,1.692c-0.863,2.607-0.67,5.634-0.635,8.343c0.088,6.859-0.106,13.708-0.477,20.558
			c-0.753,13.911-2.177,27.774-3.562,41.633c-1.38,13.81-2.688,27.629-4.307,41.413c-0.695,5.912-1.564,11.805-2.21,17.722
			c-0.491,4.5-0.944,9.077-2.332,13.408c-0.65,2.027-1.499,4.007-2.76,5.734c-1.419,1.944-3.392,3.157-5.614,4.018
			c-5.072,1.966-10.682,2.061-16.019,2.712c-13.886,1.693-27.852,2.633-41.789,3.802c-28.063,2.354-56.123,4.747-84.153,7.46
			c-13.732,1.329-27.477,2.6-41.129,4.613c-6.782,1-13.546,2.126-20.291,3.349c-2.901,0.526-5.837,0.974-8.701,1.681
			c-2.173,0.537-4.336,1.108-6.553,1.434c-1.359,0.2-2.875,0.288-4.219-0.1c-0.044-0.115-0.146-0.212-0.334-0.268
			c-2.659-0.795-3.421-3.177-3.651-5.628c0.287,0.164,0.647,0.274,1.008,0.307c2.146,0.198,4.394-0.011,6.525-0.229
			c3.505-0.359,6.993-0.903,10.491-1.325c3.599-0.434,7.195-0.89,10.787-1.383c7.111-0.976,14.205-2.09,21.252-3.459
			c7.09-1.377,14.133-2.836,21.295-3.811c14.354-1.956,28.834-2.719,43.295-3.381c14.387-0.659,28.775-1.27,43.109-2.729
			c14.482-1.475,28.959-3.262,43.389-5.178c1.832-0.243,3.655-0.521,5.477-0.83c0.633-0.107,1.226-1.385,0.275-1.333
			c-6.969,0.375-13.904,1.448-20.824,2.327c-7.027,0.893-14.055,1.788-21.093,2.589c-14.004,1.593-28.038,2.477-42.113,3.128
			c-13.883,0.642-27.779,1.212-41.61,2.636c-6.957,0.716-13.893,1.653-20.771,2.921c-6.889,1.27-13.72,2.783-20.638,3.908
			c-6.887,1.121-13.803,2.051-20.727,2.913c-5.715,0.711-11.491,1.816-17.263,1.898c-0.405,0.006-1.989,0.281-1.582-0.389
			c0.148-0.243-0.149-0.371-0.335-0.231c-0.014,0.011-0.024,0.022-0.038,0.033c-0.004-0.15-0.007-0.3-0.01-0.447
			c-0.07-4.47-0.429-8.929-0.746-13.389c-0.322-4.535-0.974-9.032-1.314-13.565c-0.313-4.172-0.604-8.36-1.251-12.496
			c-0.347-2.217-0.792-4.433-1.479-6.572c-0.5-1.556-1.1-3.211-1.955-4.655c1.79-0.137,3.554-0.37,5.29-0.916
			c2.077-0.653,4.061-1.641,5.813-2.938c3.669-2.716,6.108-6.708,6.99-11.174c0.863-4.371,0.024-8.767-2.391-12.516
			c-2.023-3.141-5.239-5.977-9.023-6.62c-4.08-0.694-7.392,1.324-9.667,4.387c-0.358-6.676-0.716-13.366-1.653-19.988
			c-0.505-3.57-1.72-6.904-2.762-10.334c0.06-0.043,0.111-0.096,0.153-0.152c0.313,0.016,0.658,0.079,0.89,0.076
			c0.84-0.01,1.699-0.148,2.534-0.244c1.774-0.205,3.524-0.557,5.255-0.989c3.655-0.912,7.286-1.92,10.977-2.684
			c7.64-1.581,15.214-3.433,22.799-5.256c15.372-3.693,30.932-6.544,46.423-9.69c15.647-3.177,31.283-6.411,46.912-9.677
			c15.561-3.251,31.115-6.533,46.669-9.819c7.755-1.639,15.506-3.289,23.219-5.117c3.608-0.855,7.195-1.832,10.837-2.538
			c3.508-0.68,7.052-1.19,10.52-2.064c1.455-0.367,2.86-0.822,4.243-1.387c4.554-0.403,8.898-2.861,13.543-1.557
			c4.419,1.241,6.309,4.97,6.954,9.231c0.322,2.129,0.348,4.292,0.347,6.441c-0.001,2.613,0.018,5.226,0.001,7.839
			c-0.046,6.994-0.373,13.981-0.862,20.957c-0.987,14.076-2.8,28.108-4.784,42.074c-0.994,6.996-2.059,13.983-3.143,20.966
			c-0.6,3.863-1.064,7.748-1.701,11.604c-0.64,3.872-1.49,7.789-3.124,11.377c-1.4,3.073-3.574,5.954-6.887,7.062
			c-0.865,0.289-1.783,0.473-2.687,0.584c-0.656,0.081-1.221,1.317-0.275,1.333c8.551,0.152,12.314-9.009,13.914-15.997
			c0.867-3.784,1.351-7.633,1.87-11.476c0.859-6.353,1.926-12.68,2.846-19.025c2.105-14.524,3.946-29.084,5.059-43.721
			c0.556-7.307,0.953-14.618,1.184-21.942c0.103-3.261,0.086-6.525,0.197-9.785c0.075-2.216,0.191-4.434,0.106-6.652
			c-0.159-4.138-1.103-8.628-4.753-11.112c-2.176-1.481-4.923-2.072-7.525-1.876c-2.796,0.211-5.381,1.241-8.071,1.934
			c-0.418,0.108-0.84,0.207-1.262,0.301c-0.106-0.071-0.249-0.106-0.432-0.083c-0.135,0.036-0.269,0.072-0.404,0.108
			c-0.313,0.102-0.629,0.195-0.943,0.295c-0.107,0.015-0.215,0.025-0.323,0.038c-0.522,0.13-1.047,0.244-1.571,0.365
			c-0.058,0.063-0.109,0.131-0.141,0.201c-2.414,0.654-4.868,1.157-7.33,1.601c-3.588,0.648-7.128,1.376-10.669,2.242
			c-7.594,1.857-15.22,3.569-22.868,5.189c-15.63,3.311-31.26,6.619-46.896,9.9c-15.705,3.295-31.416,6.563-47.138,9.779
			c-15.523,3.176-31.153,5.979-46.577,9.611c-7.597,1.789-15.16,3.724-22.785,5.392c-3.712,0.812-7.419,1.582-11.093,2.56
			c-3.682,0.981-7.34,1.831-11.073,2.587c-0.726,0.147-1.658,0.088-2.39,0.336c-0.012-0.043-0.026-0.085-0.038-0.128
			c-0.259-0.895-0.505-1.804-0.697-2.716c2.357,0.34,4.853-0.453,7.05-1.184c2.962-0.985,5.801-2.263,8.848-2.974
			c8.983-2.094,17.984-4.109,26.998-6.065c17.757-3.853,35.485-7.85,53.292-11.47c8.948-1.819,17.945-3.395,26.832-5.501
			c8.753-2.075,17.4-4.551,26.128-6.721c8.7-2.163,17.494-3.911,26.271-5.721c8.802-1.815,17.557-3.834,26.374-5.579
			c8.654-1.713,17.331-3.368,25.845-5.697c8.382-2.292,16.915-3.864,25.388-5.761c0.538-0.214,1.072-0.441,1.594-0.699
			c1.738-0.861,3.431-1.83,5.195-2.637c-8.416,2.113-16.966,3.615-25.407,5.615c-4.244,1.006-8.429,2.237-12.67,3.253
			c-4.295,1.029-8.617,1.942-12.945,2.819c-8.707,1.765-17.386,3.611-26.067,5.493c-8.68,1.882-17.402,3.574-26.064,5.541
			c-8.773,1.993-17.419,4.469-26.132,6.699c-8.668,2.218-17.393,4.01-26.169,5.734c-17.832,3.504-35.569,7.469-53.319,11.362
			c-8.831,1.937-17.665,3.852-26.477,5.871c-3.835,0.879-7.814,1.55-11.544,2.815c-3.006,1.019-5.91,2.383-9.021,3.07
			c-1.134,0.25-2.315,0.423-3.464,0.23c1.245-2.786,4.637-4.797,7.001-6.418c3.391-2.324,6.715-4.726,10.05-7.131
			c8.35-6.021,16.785-11.932,25.402-17.566c8.416-5.502,17.015-10.721,25.739-15.72c8.82-5.054,17.814-9.785,26.697-14.724
			c7.61-4.232,15.197-8.472,23.043-12.222c0.146-0.02,0.293-0.042,0.439-0.062c6.377-0.878,12.829-1.201,19.257-1.421
			c12.765-0.437,25.496-0.002,38.244,0.668c24.846,1.306,49.83,3.273,73.984,9.576c3.108,0.811,6.229,1.633,9.251,2.727
			c1.482,0.536,3.001,1.111,4.321,1.987c0.049,0.033,0.103,0.074,0.154,0.109c0.082,0.031,0.167,0.053,0.248,0.09
			C270.874,20.46,271.514,21.24,271.391,22.235z"/>
		<path style="opacity:0.53;fill:#FFD96D;" d="M21.164,196.801c-0.407,0.67,1.177,0.395,1.582,0.389
			c5.772-0.082,11.548-1.186,17.263-1.898c6.924-0.862,13.84-1.792,20.727-2.913c6.917-1.126,13.749-2.638,20.638-3.908
			c6.878-1.268,13.815-2.204,20.771-2.921c13.831-1.424,27.726-1.994,41.61-2.636c14.075-0.651,28.109-1.535,42.113-3.128
			c7.039-0.801,14.066-1.696,21.094-2.589c6.919-0.879,13.854-1.952,20.824-2.327c0.291-0.016,0.425,0.1,0.47,0.261
			c2.177-0.761,4.454-1.178,6.715-1.683c-0.101-0.376,0.296-0.976,0.749-1.032c0.904-0.111,1.822-0.294,2.687-0.584
			c3.313-1.108,5.487-3.989,6.887-7.062c1.634-3.588,2.484-7.505,3.124-11.377c0.638-3.856,1.102-7.742,1.701-11.604
			c1.084-6.983,2.149-13.969,3.143-20.966c1.984-13.966,3.797-27.998,4.784-42.074c0.489-6.976,0.816-13.963,0.862-20.957
			c0.017-2.613-0.002-5.226-0.001-7.839c0.001-2.149-0.025-4.312-0.347-6.441c-0.645-4.261-2.535-7.99-6.954-9.231
			c-4.645-1.305-8.989,1.153-13.543,1.557c-1.383,0.565-2.788,1.02-4.243,1.387c-3.468,0.874-7.012,1.384-10.52,2.064
			c-3.641,0.706-7.229,1.683-10.837,2.538c-7.714,1.828-15.464,3.478-23.219,5.117c-15.553,3.286-31.108,6.567-46.669,9.819
			c-15.629,3.265-31.264,6.5-46.912,9.677c-15.491,3.145-31.051,5.996-46.423,9.69c-7.585,1.823-15.159,3.674-22.799,5.256
			c-3.691,0.764-7.322,1.772-10.977,2.684c-1.731,0.432-3.481,0.784-5.255,0.989c-0.835,0.096-1.694,0.234-2.534,0.244
			c-0.232,0.003-0.576-0.06-0.89-0.076c-0.042,0.056-0.092,0.109-0.153,0.152c1.042,3.43,2.258,6.764,2.762,10.334
			c0.936,6.623,1.295,13.312,1.653,19.988c2.275-3.063,5.587-5.081,9.667-4.387c3.784,0.644,7,3.48,9.023,6.62
			c2.415,3.749,3.254,8.145,2.391,12.516c-0.882,4.466-3.322,8.458-6.99,11.174c-1.752,1.297-3.736,2.285-5.813,2.938
			c-1.737,0.546-3.5,0.779-5.29,0.916c0.855,1.444,1.456,3.099,1.955,4.655c0.687,2.139,1.131,4.355,1.479,6.572
			c0.648,4.136,0.938,8.324,1.251,12.496c0.34,4.533,0.992,9.031,1.314,13.565c0.317,4.46,0.675,8.919,0.746,13.389
			c0.002,0.147,0.006,0.297,0.01,0.447c0.014-0.011,0.024-0.022,0.038-0.033C21.014,196.429,21.312,196.557,21.164,196.801z"/>
		<path style="fill:#FFEC88;" d="M270.006,20.067c-0.081-0.037-0.166-0.059-0.248-0.09c-0.051-0.035-0.105-0.076-0.154-0.109
			c-1.32-0.876-2.839-1.451-4.321-1.987c-3.023-1.094-6.143-1.916-9.252-2.727c-24.153-6.303-49.138-8.27-73.984-9.576
			c-12.748-0.67-25.479-1.105-38.244-0.668c-6.429,0.22-12.881,0.543-19.257,1.421c-0.146,0.02-0.293,0.042-0.439,0.062
			c-7.846,3.75-15.433,7.991-23.043,12.222c-8.882,4.939-17.877,9.671-26.697,14.724c-8.724,4.999-17.323,10.217-25.739,15.72
			c-8.617,5.633-17.053,11.545-25.402,17.566c-3.335,2.405-6.659,4.806-10.05,7.131c-2.364,1.62-5.756,3.632-7.001,6.418
			c1.148,0.193,2.329,0.02,3.464-0.23c3.111-0.687,6.016-2.05,9.021-3.07c3.73-1.265,7.709-1.936,11.544-2.815
			c8.812-2.02,17.647-3.935,26.477-5.871c17.75-3.893,35.487-7.859,53.319-11.362c8.776-1.724,17.501-3.516,26.169-5.734
			c8.713-2.23,17.359-4.706,26.132-6.699c8.662-1.967,17.384-3.659,26.064-5.541c8.682-1.883,17.361-3.728,26.067-5.493
			c4.328-0.877,8.65-1.791,12.945-2.819c4.242-1.016,8.426-2.247,12.67-3.253c8.441-2,16.992-3.503,25.407-5.615
			c-1.764,0.806-3.458,1.775-5.195,2.637c-0.522,0.259-1.056,0.485-1.594,0.699c-8.473,1.896-17.006,3.468-25.388,5.761
			c-8.515,2.329-17.192,3.984-25.846,5.697c-8.816,1.745-17.572,3.764-26.374,5.579c-8.777,1.811-17.572,3.559-26.271,5.721
			c-8.728,2.17-17.375,4.646-26.128,6.721c-8.887,2.107-17.884,3.682-26.832,5.501c-17.807,3.62-35.535,7.617-53.292,11.47
			c-9.014,1.956-18.015,3.972-26.998,6.065c-3.047,0.71-5.887,1.989-8.848,2.974c-2.196,0.73-4.692,1.523-7.049,1.184
			c0.192,0.912,0.438,1.821,0.697,2.716c0.012,0.043,0.026,0.085,0.039,0.128c0.732-0.248,1.664-0.189,2.39-0.336
			c3.733-0.756,7.39-1.606,11.073-2.587c3.674-0.978,7.38-1.748,11.092-2.56c7.625-1.669,15.188-3.603,22.785-5.392
			c15.424-3.632,31.054-6.435,46.577-9.611c15.721-3.217,31.432-6.484,47.138-9.779c15.636-3.281,31.267-6.589,46.896-9.9
			c7.648-1.62,15.274-3.332,22.868-5.189c3.542-0.866,7.081-1.594,10.669-2.242c2.462-0.445,4.916-0.947,7.33-1.601
			c0.033-0.07,0.083-0.138,0.141-0.201c0.524-0.121,1.049-0.236,1.571-0.365c0.108-0.013,0.216-0.024,0.323-0.038
			c0.314-0.099,0.63-0.192,0.943-0.295c0.135-0.035,0.269-0.072,0.403-0.108c0.182-0.023,0.326,0.012,0.432,0.083
			c0.423-0.093,0.844-0.193,1.262-0.301c2.69-0.693,5.276-1.723,8.071-1.934c2.602-0.196,5.349,0.395,7.525,1.876
			c3.65,2.484,4.594,6.974,4.753,11.112c0.085,2.218-0.03,4.436-0.106,6.652c-0.111,3.26-0.094,6.524-0.197,9.785
			c-0.231,7.324-0.628,14.635-1.184,21.942c-1.113,14.637-2.954,29.197-5.059,43.721c-0.92,6.345-1.987,12.672-2.846,19.025
			c-0.52,3.843-1.004,7.691-1.87,11.476c-1.342,5.86-4.206,13.244-10.137,15.387c-0.02,0.212-0.141,0.413-0.398,0.497
			c-4.294,1.406-8.935,1.538-12.928,3.826c-0.592,0.339-1.12-0.451-0.734-0.882c-1.041,0.161-2.084,0.314-3.129,0.453
			c-14.43,1.916-28.907,3.703-43.389,5.178c-14.334,1.459-28.721,2.07-43.109,2.729c-14.461,0.663-28.941,1.426-43.295,3.381
			c-7.162,0.976-14.205,2.434-21.295,3.811c-7.047,1.369-14.141,2.484-21.252,3.459c-3.591,0.493-7.188,0.948-10.787,1.383
			c-3.498,0.423-6.986,0.966-10.491,1.325c-2.13,0.218-4.379,0.427-6.525,0.229c-0.361-0.033-0.721-0.143-1.008-0.307
			c0.231,2.451,0.993,4.833,3.651,5.628c0.188,0.056,0.29,0.153,0.334,0.268c1.344,0.389,2.859,0.3,4.218,0.1
			c2.217-0.326,4.38-0.898,6.553-1.434c2.863-0.707,5.799-1.156,8.701-1.681c6.745-1.223,13.509-2.349,20.291-3.349
			c13.653-2.013,27.397-3.283,41.129-4.613c28.031-2.713,56.091-5.106,84.153-7.46c13.937-1.169,27.903-2.109,41.789-3.802
			c5.337-0.651,10.947-0.746,16.019-2.712c2.222-0.861,4.195-2.074,5.614-4.018c1.261-1.727,2.11-3.708,2.76-5.734
			c1.388-4.331,1.841-8.908,2.332-13.408c0.646-5.917,1.516-11.81,2.21-17.722c1.619-13.785,2.927-27.603,4.307-41.413
			c1.385-13.859,2.809-27.722,3.562-41.633c0.371-6.85,0.565-13.699,0.477-20.558c-0.035-2.71-0.228-5.736,0.635-8.343
			c0.147-0.444,0.416-1.041,0.675-1.692c0.144-0.236,0.286-0.474,0.418-0.716c0.287-0.526,0.603-1.091,0.678-1.694
			C271.514,21.24,270.874,20.46,270.006,20.067z"/>
		<path style="fill:#FFEC88;" d="M186.398,38.041c-0.754,0.013-0.751-1.156,0-1.169c1.857-0.031,3.713-0.101,5.567-0.21
			c4.132-0.243,8.24-0.671,12.336-1.205c3.375-0.707,6.75-1.414,10.132-2.099c4.328-0.877,8.65-1.791,12.945-2.819
			c4.242-1.016,8.426-2.247,12.67-3.253c5.948-1.41,11.95-2.575,17.922-3.878c0.088-0.164,0.24-0.294,0.474-0.309
			c0.51-0.034,1.018-0.084,1.526-0.134c1.833-0.412,3.663-0.837,5.485-1.295c-0.54,0.247-1.072,0.511-1.602,0.78
			c2.439-0.398,4.861-0.902,7.284-1.404c-0.25-0.424-0.654-0.762-1.133-0.979c-0.081-0.037-0.166-0.059-0.248-0.09
			c-0.051-0.035-0.105-0.076-0.154-0.109c-1.32-0.876-2.839-1.451-4.321-1.987c-3.023-1.094-6.143-1.916-9.252-2.727
			c-24.153-6.303-49.138-8.27-73.984-9.576c-12.748-0.67-25.479-1.105-38.244-0.668c-6.429,0.22-12.881,0.543-19.257,1.421
			c-0.146,0.02-0.293,0.042-0.439,0.062c-7.846,3.75-15.433,7.991-23.043,12.222c-8.882,4.939-17.877,9.671-26.697,14.724
			c-8.724,4.999-17.323,10.217-25.739,15.72c-8.617,5.633-17.053,11.545-25.402,17.566c-3.335,2.405-6.659,4.806-10.05,7.131
			c-2.364,1.62-5.756,3.632-7.001,6.418c1.148,0.193,2.329,0.02,3.464-0.23c3.111-0.687,6.016-2.05,9.021-3.07
			c3.73-1.265,7.709-1.936,11.544-2.815c8.812-2.02,17.647-3.935,26.477-5.871c17.75-3.893,35.487-7.859,53.319-11.362
			c8.776-1.724,17.501-3.516,26.169-5.734c8.713-2.23,17.359-4.706,26.132-6.699c8.662-1.967,17.384-3.659,26.064-5.541
			c1.778-0.385,3.556-0.761,5.334-1.143C191.273,37.88,188.839,38,186.398,38.041z"/>
		<path style="fill:#FFEC88;" d="M260.748,24.058c-0.162,0.082-0.323,0.167-0.486,0.248c-0.522,0.259-1.056,0.485-1.594,0.699
			c-8.473,1.896-17.006,3.468-25.388,5.761c-0.059,0.016-0.118,0.03-0.176,0.046c0.927-0.147,1.854-0.292,2.781-0.432
			c3.636-0.55,7.282-1.041,10.94-1.422c1.851-0.193,3.706-0.358,5.562-0.488c1.393-0.098,2.768-0.317,4.159-0.447
			c2.085-0.194,4.381-0.203,6.206,0.977c2.018,1.306,3.021,3.676,3.483,5.949c1.136,5.59,0.185,11.346,0.214,16.987
			c0.039,7.656-0.029,15.291-0.395,22.94c-0.729,15.209-2.228,30.365-3.587,45.526c-0.214,2.384-0.421,4.769-0.624,7.155
			c1.099-10.221,2.082-20.455,3.105-30.685c1.385-13.859,2.809-27.722,3.562-41.633c0.371-6.85,0.565-13.699,0.477-20.558
			c-0.035-2.71-0.228-5.736,0.635-8.343c0.147-0.444,0.416-1.041,0.675-1.692c0.144-0.236,0.286-0.474,0.418-0.716
			c0.287-0.526,0.603-1.091,0.678-1.694c0.002-0.018,0-0.035,0.002-0.053C267.861,22.911,264.331,23.656,260.748,24.058z"/>
		<path style="fill:#FFD96D;" d="M21.164,196.801c-0.407,0.67,1.177,0.395,1.582,0.389c5.772-0.082,11.548-1.186,17.263-1.898
			c6.924-0.862,13.84-1.792,20.727-2.913c6.917-1.126,13.749-2.638,20.638-3.908c6.878-1.268,13.815-2.204,20.771-2.921
			c12.837-1.322,25.73-1.908,38.617-2.498c-3.522-0.073-7.044-0.092-10.569-0.005c-11.543,0.286-23.093,1.293-34.59,2.316
			c-11.257,1.002-22.485,2.218-33.726,3.376c-5.388,0.555-10.798,0.987-16.218,0.976c-2.675-0.006-5.351-0.12-8.011-0.4
			c-2.106-0.222-4.28-0.442-6.259-1.242c-3.089-1.249-4.989-3.781-6.002-6.887c-0.61-1.869-0.889-3.809-1.247-5.735
			c-0.486-2.612-1.024-5.214-1.53-7.823c-0.509-2.624-0.988-5.255-1.355-7.903c-0.346-2.496-0.709-5.078-0.647-7.603
			c0.038-1.544,0.492-3.052,1.66-4.117c1.173-1.068,2.719-1.619,4.147-2.249c3.239-1.429,6-3.502,8.052-6.414
			c1.847-2.62,3.024-5.662,3.512-8.826c0.975-6.316-0.913-13.107-5.47-17.67c-2.61-2.613-5.919-4.439-9.612-4.839
			c-1.872-0.203-3.798-0.202-5.627-0.696c-1.832-0.495-3.25-1.556-4.254-3.162c-1.08-1.728-1.575-3.749-2.017-5.718
			c-0.243-1.085-0.459-2.177-0.714-3.259c-0.282-1.197-0.722-2.345-1.112-3.511c-0.709-2.118-1.368-4.252-1.993-6.396
			c-0.131-0.015-0.265-0.031-0.395-0.038c-0.042,0.056-0.092,0.109-0.153,0.152c1.042,3.43,2.258,6.764,2.762,10.334
			c0.936,6.623,1.295,13.312,1.653,19.988c2.275-3.063,5.587-5.081,9.667-4.387c3.784,0.644,7,3.48,9.023,6.62
			c2.415,3.749,3.254,8.145,2.391,12.516c-0.882,4.466-3.322,8.458-6.99,11.174c-1.752,1.297-3.736,2.285-5.813,2.938
			c-1.737,0.546-3.5,0.779-5.29,0.916c0.855,1.444,1.456,3.099,1.955,4.655c0.687,2.139,1.131,4.355,1.479,6.572
			c0.648,4.136,0.938,8.324,1.251,12.496c0.34,4.533,0.992,9.031,1.314,13.565c0.317,4.46,0.675,8.919,0.746,13.389
			c0.002,0.147,0.006,0.297,0.01,0.447c0.014-0.011,0.024-0.022,0.038-0.033C21.014,196.429,21.312,196.557,21.164,196.801z"/>
		<path style="fill:#FFD96D;" d="M216.628,34.631c-3.062,0.625-6.13,1.225-9.194,1.832c-0.519,0.103-1.037,0.214-1.556,0.319
			c3.47-0.519,6.914-1.225,10.326-2.044C216.345,34.704,216.486,34.666,216.628,34.631z"/>
		<path style="fill:#FFD96D;" d="M190.498,6.764c10.95,1.354,21.793,3.497,32.444,6.372c2.16,0.583,4.344,1.141,6.346,2.166
			c1.269,0.649,2.61,1.551,3.222,2.891c1.576,3.452-2.932,6.503-5.387,7.909c-5.914,3.386-12.228,5.932-18.544,8.468
			c1.952-0.404,3.9-0.817,5.854-1.213c4.328-0.877,8.65-1.791,12.945-2.819c4.242-1.016,8.426-2.247,12.67-3.253
			c4.469-1.059,8.968-1.979,13.461-2.924c5.035-1.434,10.01-3.086,14.756-5.248c-0.964-0.48-1.98-0.869-2.984-1.232
			c-3.023-1.094-6.143-1.916-9.252-2.727c-24.153-6.303-49.138-8.27-73.984-9.576c-4.971-0.261-9.94-0.484-14.909-0.636
			C174.945,5.286,182.745,5.805,190.498,6.764z"/>
		<g>
			<path style="fill:#FCBC39;" d="M56.97,156.816c-3.139-1.303-5.888-3.706-7.178-6.897c-1.409-3.486-0.946-7.465,0.356-10.912
				c0.422-1.117,0.961-2.172,1.603-3.147c2.561-3.272,6.086-5.363,10.204-6.004c1.424-0.221,2.887-0.259,4.336-0.12
				c0.123,0.015,0.246,0.03,0.369,0.048c0.122,0.014,0.243,0.035,0.364,0.051c0.899,0.143,1.791,0.344,2.675,0.585
				c1.248,0.379,2.455,0.886,3.572,1.547c6.646,3.932,7.559,13.296,3.447,19.404C72.433,157.734,63.908,159.698,56.97,156.816z"/>
			<path style="opacity:0.48;fill:#FCBC39;" d="M52.519,153.901c1.166,0.534,2.41,0.91,3.713,1.094
				c2.262,0.32,4.549,0.06,6.709-0.628c-2.412-0.108-4.74-0.729-6.883-2.067c-0.465-0.29-0.309-1.126,0.295-1.089
				c3.138,0.193,6.164-0.712,8.7-2.567c3.976-2.908,6.67-8.028,6.502-12.987c-0.063-1.869-0.604-3.749-1.774-5.214
				c-0.027-0.008-0.053-0.018-0.079-0.026c-0.884-0.241-1.776-0.442-2.675-0.585c-0.121-0.017-0.242-0.037-0.364-0.051
				c-0.123-0.017-0.246-0.033-0.369-0.048c-1.449-0.139-2.912-0.101-4.336,0.12c-4.118,0.641-7.643,2.732-10.204,6.004
				c-0.642,0.974-1.181,2.03-1.603,3.147c-1.302,3.447-1.765,7.427-0.356,10.912C50.406,151.438,51.358,152.772,52.519,153.901z"/>
		</g>
		<g>
			<path style="fill:#FCBC39;" d="M124.557,108.504c-2.449-1.017-4.594-2.892-5.6-5.382c-1.099-2.719-0.738-5.824,0.278-8.514
				c0.329-0.871,0.75-1.695,1.251-2.455c1.998-2.553,4.748-4.185,7.962-4.685c1.111-0.173,2.253-0.202,3.383-0.094
				c0.096,0.012,0.192,0.024,0.288,0.037c0.095,0.011,0.189,0.027,0.284,0.04c0.701,0.111,1.397,0.268,2.087,0.456
				c0.974,0.296,1.916,0.692,2.787,1.207c5.185,3.068,5.898,10.374,2.689,15.139C136.622,109.221,129.971,110.753,124.557,108.504z"
				/>
			<path style="opacity:0.48;fill:#FCBC39;" d="M121.085,106.23c0.91,0.417,1.88,0.71,2.897,0.854
				c1.764,0.249,3.549,0.047,5.234-0.49c-1.882-0.084-3.699-0.569-5.37-1.613c-0.363-0.227-0.242-0.879,0.23-0.85
				c2.448,0.15,4.809-0.556,6.788-2.003c3.102-2.269,5.204-6.263,5.073-10.132c-0.049-1.459-0.471-2.925-1.384-4.068
				c-0.021-0.006-0.041-0.014-0.062-0.021c-0.69-0.188-1.386-0.345-2.087-0.456c-0.095-0.013-0.189-0.029-0.284-0.04
				c-0.096-0.014-0.192-0.026-0.288-0.037c-1.131-0.108-2.272-0.079-3.383,0.094c-3.213,0.5-5.964,2.131-7.962,4.685
				c-0.501,0.76-0.921,1.584-1.251,2.455c-1.016,2.689-1.377,5.794-0.278,8.514C119.436,104.309,120.179,105.35,121.085,106.23z"/>
		</g>
		<g>
			<path style="fill:#FCBC39;" d="M157.556,175.924c-1.225-0.508-2.297-1.446-2.8-2.691c-0.55-1.36-0.369-2.912,0.139-4.257
				c0.165-0.436,0.375-0.847,0.625-1.228c0.999-1.277,2.374-2.092,3.981-2.342c0.555-0.086,1.126-0.101,1.692-0.047
				c0.048,0.006,0.096,0.012,0.144,0.019c0.047,0.006,0.095,0.014,0.142,0.02c0.351,0.056,0.699,0.134,1.044,0.228
				c0.487,0.148,0.958,0.346,1.393,0.604c2.592,1.534,2.949,5.187,1.345,7.569C163.589,176.282,160.263,177.048,157.556,175.924z"/>
			<path style="opacity:0.48;fill:#FCBC39;" d="M155.82,174.787c0.455,0.208,0.94,0.355,1.448,0.427
				c0.882,0.125,1.775,0.023,2.617-0.245c-0.941-0.042-1.849-0.284-2.685-0.806c-0.181-0.113-0.121-0.439,0.115-0.425
				c1.224,0.075,2.404-0.278,3.394-1.001c1.551-1.134,2.602-3.132,2.536-5.066c-0.025-0.729-0.236-1.462-0.692-2.034
				c-0.01-0.003-0.021-0.007-0.031-0.01c-0.345-0.094-0.693-0.172-1.044-0.228c-0.047-0.007-0.095-0.014-0.142-0.02
				c-0.048-0.007-0.096-0.013-0.144-0.019c-0.565-0.054-1.136-0.039-1.692,0.047c-1.607,0.25-2.982,1.066-3.981,2.342
				c-0.25,0.38-0.461,0.792-0.625,1.228c-0.508,1.345-0.689,2.897-0.139,4.257C154.996,173.826,155.367,174.347,155.82,174.787z"/>
		</g>
		<g>
			<path style="fill:#FCBC39;" d="M75.636,102.424c-0.915-0.38-1.717-1.081-2.093-2.011c-0.411-1.016-0.276-2.177,0.104-3.182
				c0.123-0.326,0.28-0.633,0.467-0.917c0.747-0.954,1.775-1.564,2.976-1.751c0.415-0.065,0.842-0.076,1.264-0.035
				c0.036,0.004,0.072,0.009,0.108,0.014c0.035,0.004,0.071,0.01,0.106,0.015c0.262,0.042,0.522,0.1,0.78,0.17
				c0.364,0.11,0.716,0.258,1.042,0.451c1.938,1.147,2.204,3.877,1.005,5.658C80.145,102.691,77.659,103.264,75.636,102.424z"/>
			<path style="opacity:0.48;fill:#FCBC39;" d="M74.338,101.574c0.34,0.156,0.703,0.265,1.083,0.319
				c0.659,0.093,1.326,0.018,1.956-0.183c-0.703-0.032-1.382-0.213-2.007-0.603c-0.135-0.085-0.09-0.328,0.086-0.318
				c0.915,0.056,1.797-0.208,2.537-0.748c1.159-0.848,1.945-2.341,1.896-3.787c-0.018-0.545-0.176-1.093-0.517-1.52
				c-0.001-0.001-0.002-0.002-0.003-0.002c-0.264-0.073-0.531-0.133-0.8-0.176c-0.035-0.005-0.071-0.011-0.106-0.015
				c-0.036-0.005-0.072-0.009-0.108-0.014c-0.423-0.041-0.849-0.03-1.264,0.035c-1.201,0.187-2.229,0.797-2.976,1.751
				c-0.187,0.284-0.344,0.592-0.467,0.917c-0.38,1.005-0.515,2.166-0.104,3.182C73.722,100.856,74,101.245,74.338,101.574z"/>
		</g>
		<g>
			<path style="fill:#FCBC39;" d="M127.88,170.033c-1.722-0.715-3.23-2.033-3.938-3.784c-0.773-1.912-0.519-4.095,0.196-5.987
				c0.231-0.613,0.527-1.192,0.879-1.726c1.405-1.795,3.339-2.942,5.598-3.294c0.781-0.122,1.584-0.142,2.379-0.066
				c0.068,0.008,0.135,0.017,0.203,0.026c0.067,0.008,0.133,0.019,0.2,0.028c0.493,0.078,0.983,0.188,1.468,0.321
				c0.685,0.208,1.347,0.486,1.959,0.849c3.646,2.157,4.147,7.295,1.891,10.645C136.364,170.536,131.687,171.614,127.88,170.033z"/>
			<path style="opacity:0.48;fill:#FCBC39;" d="M125.439,168.433c0.64,0.293,1.322,0.499,2.037,0.6
				c1.241,0.175,2.496,0.033,3.68-0.344c-1.324-0.059-2.601-0.4-3.776-1.134c-0.255-0.159-0.17-0.618,0.162-0.597
				c1.721,0.106,3.382-0.391,4.773-1.408c2.181-1.595,3.659-4.404,3.567-7.125c-0.035-1.026-0.331-2.057-0.973-2.86
				c-0.015-0.005-0.029-0.01-0.043-0.014c-0.485-0.132-0.975-0.242-1.468-0.321c-0.067-0.009-0.133-0.02-0.2-0.028
				c-0.067-0.01-0.135-0.018-0.203-0.026c-0.795-0.076-1.598-0.055-2.379,0.066c-2.259,0.352-4.193,1.499-5.598,3.294
				c-0.352,0.535-0.648,1.113-0.879,1.726c-0.715,1.891-0.968,4.074-0.196,5.987C124.28,167.082,124.802,167.814,125.439,168.433z"
				/>
		</g>
		<g>
			<path style="fill:#FCBC39;" d="M188.223,113.06c-0.863-0.358-1.619-1.019-1.973-1.896c-0.387-0.958-0.26-2.052,0.098-3
				c0.116-0.307,0.264-0.597,0.441-0.865c0.704-0.9,1.673-1.475,2.805-1.651c0.391-0.061,0.794-0.071,1.192-0.033
				c0.034,0.004,0.068,0.008,0.101,0.013c0.034,0.004,0.067,0.009,0.1,0.014c0.247,0.039,0.492,0.094,0.735,0.161
				c0.343,0.104,0.675,0.244,0.982,0.425c1.827,1.081,2.078,3.656,0.948,5.335C192.475,113.312,190.131,113.852,188.223,113.06z"/>
			<path style="opacity:0.48;fill:#FCBC39;" d="M187,112.258c0.321,0.147,0.663,0.25,1.021,0.301
				c0.622,0.088,1.251,0.017,1.844-0.172c-0.663-0.03-1.303-0.2-1.892-0.568c-0.128-0.08-0.085-0.31,0.081-0.299
				c0.863,0.053,1.695-0.196,2.392-0.706c1.093-0.799,1.834-2.207,1.788-3.571c-0.017-0.514-0.166-1.03-0.488-1.433
				c-0.007-0.002-0.015-0.005-0.022-0.007c-0.243-0.066-0.488-0.121-0.735-0.161c-0.033-0.005-0.067-0.01-0.1-0.014
				c-0.034-0.005-0.068-0.009-0.101-0.013c-0.398-0.038-0.801-0.028-1.192,0.033c-1.132,0.176-2.101,0.751-2.805,1.651
				c-0.176,0.268-0.325,0.558-0.441,0.865c-0.358,0.948-0.485,2.042-0.098,3C186.419,111.581,186.681,111.948,187,112.258z"/>
		</g>
		<g>
			<path style="fill:#FCBC39;" d="M191.714,67.684c-0.645-0.268-1.21-0.762-1.475-1.417c-0.29-0.716-0.194-1.534,0.073-2.242
				c0.087-0.23,0.197-0.446,0.329-0.647c0.526-0.673,1.251-1.102,2.097-1.234c0.293-0.046,0.593-0.053,0.891-0.025
				c0.025,0.003,0.051,0.006,0.076,0.01c0.025,0.003,0.05,0.007,0.075,0.011c0.185,0.029,0.368,0.071,0.55,0.12
				c0.257,0.078,0.505,0.182,0.734,0.318c1.366,0.808,1.553,2.733,0.708,3.987C194.892,67.872,193.14,68.276,191.714,67.684z"/>
			<path style="opacity:0.48;fill:#FCBC39;" d="M190.8,67.085c0.24,0.11,0.495,0.187,0.763,0.225
				c0.465,0.066,0.935,0.012,1.379-0.129c-0.496-0.022-0.974-0.15-1.415-0.425c-0.096-0.06-0.064-0.231,0.061-0.224
				c0.645,0.04,1.267-0.146,1.788-0.527c0.817-0.598,1.371-1.65,1.336-2.669c-0.013-0.385-0.124-0.771-0.365-1.073
				c-0.187-0.051-0.375-0.094-0.565-0.124c-0.025-0.003-0.05-0.007-0.075-0.011c-0.025-0.004-0.051-0.007-0.076-0.01
				c-0.298-0.028-0.598-0.021-0.891,0.025c-0.846,0.132-1.571,0.561-2.097,1.234c-0.132,0.2-0.243,0.417-0.329,0.647
				c-0.268,0.708-0.363,1.526-0.073,2.242C190.366,66.578,190.561,66.853,190.8,67.085z"/>
		</g>
		<g>
			<path style="fill:#FCBC39;" d="M45.746,185.898c-1.36-0.565-2.552-1.606-3.111-2.989c-0.611-1.511-0.41-3.235,0.155-4.729
				c0.183-0.484,0.417-0.942,0.695-1.364c1.11-1.418,2.638-2.325,4.423-2.602c0.617-0.096,1.251-0.113,1.879-0.052
				c0.054,0.007,0.107,0.013,0.16,0.021c0.053,0.006,0.105,0.015,0.158,0.022c0.39,0.062,0.776,0.149,1.16,0.253
				c0.541,0.164,1.064,0.384,1.548,0.67c2.88,1.704,3.276,5.763,1.494,8.41C52.449,186.296,48.753,187.147,45.746,185.898z"/>
			<path style="opacity:0.48;fill:#FCBC39;" d="M43.817,184.635c0.506,0.232,1.044,0.395,1.609,0.475
				c0.98,0.139,1.972,0.026,2.908-0.272c-1.046-0.047-2.055-0.316-2.983-0.896c-0.202-0.126-0.134-0.488,0.128-0.472
				c1.36,0.083,2.671-0.309,3.77-1.113c1.723-1.26,2.891-3.479,2.818-5.628c-0.028-0.811-0.262-1.627-0.771-2.262
				c-0.394-0.109-0.791-0.199-1.192-0.262c-0.053-0.007-0.105-0.016-0.158-0.022c-0.053-0.008-0.107-0.014-0.16-0.021
				c-0.628-0.06-1.262-0.044-1.879,0.052c-1.785,0.278-3.313,1.184-4.423,2.602c-0.278,0.422-0.512,0.88-0.695,1.364
				c-0.564,1.494-0.765,3.219-0.155,4.729C42.902,183.567,43.314,184.145,43.817,184.635z"/>
		</g>
		<g>
			<path style="fill:#FCBC39;" d="M217.169,87.984c-2.846-1.182-5.338-3.36-6.507-6.253c-1.277-3.16-0.858-6.768,0.323-9.893
				c0.382-1.013,0.871-1.969,1.453-2.853c2.322-2.967,5.517-4.862,9.251-5.444c1.291-0.201,2.617-0.235,3.931-0.109
				c0.112,0.014,0.223,0.028,0.335,0.043c0.11,0.013,0.22,0.031,0.33,0.047c0.815,0.13,1.624,0.311,2.425,0.53
				c1.132,0.343,2.226,0.803,3.238,1.402c6.025,3.565,6.853,12.054,3.125,17.591C231.188,88.816,223.459,90.596,217.169,87.984z"/>
			<path style="opacity:0.48;fill:#FCBC39;" d="M213.134,85.341c1.057,0.484,2.185,0.825,3.366,0.992
				c2.05,0.29,4.124,0.054,6.082-0.569c-2.187-0.098-4.298-0.661-6.24-1.874c-0.422-0.263-0.281-1.021,0.267-0.987
				c2.845,0.175,5.588-0.646,7.887-2.327c3.604-2.636,6.047-7.278,5.894-11.773c-0.057-1.695-0.548-3.399-1.608-4.727
				c-0.024-0.007-0.048-0.017-0.072-0.024c-0.802-0.218-1.611-0.4-2.425-0.53c-0.11-0.015-0.22-0.034-0.33-0.047
				c-0.111-0.016-0.223-0.03-0.335-0.043c-1.314-0.126-2.64-0.092-3.931,0.109c-3.734,0.581-6.929,2.477-9.251,5.444
				c-0.582,0.883-1.071,1.84-1.453,2.853c-1.181,3.125-1.601,6.733-0.323,9.893C211.219,83.108,212.082,84.318,213.134,85.341z"/>
		</g>
		<g>
			<path style="fill:#FCBC39;" d="M207.29,166.855c-2.846-1.182-5.338-3.36-6.507-6.253c-1.277-3.16-0.857-6.768,0.323-9.893
				c0.383-1.013,0.871-1.969,1.453-2.853c2.322-2.967,5.517-4.862,9.251-5.443c1.291-0.201,2.617-0.235,3.931-0.109
				c0.112,0.014,0.223,0.028,0.335,0.044c0.111,0.013,0.22,0.031,0.33,0.046c0.815,0.129,1.624,0.311,2.426,0.53
				c1.132,0.343,2.226,0.803,3.238,1.402c6.025,3.565,6.853,12.054,3.125,17.591C221.309,167.688,213.58,169.468,207.29,166.855z"/>
			<path style="opacity:0.48;fill:#FCBC39;" d="M203.255,164.212c1.057,0.484,2.185,0.825,3.366,0.992
				c2.05,0.29,4.124,0.054,6.082-0.569c-2.187-0.098-4.298-0.661-6.24-1.874c-0.422-0.263-0.281-1.021,0.268-0.987
				c2.844,0.175,5.588-0.646,7.887-2.327c3.605-2.636,6.047-7.278,5.895-11.774c-0.058-1.695-0.548-3.398-1.608-4.727
				c-0.024-0.007-0.048-0.017-0.072-0.024c-0.802-0.219-1.611-0.4-2.426-0.53c-0.11-0.015-0.22-0.033-0.33-0.046
				c-0.111-0.016-0.223-0.03-0.335-0.044c-1.314-0.126-2.64-0.091-3.931,0.109c-3.734,0.581-6.929,2.477-9.251,5.443
				c-0.582,0.883-1.071,1.84-1.453,2.853c-1.181,3.125-1.6,6.733-0.323,9.893C201.34,161.98,202.203,163.189,203.255,164.212z"/>
		</g>
		<path style="fill:#FFD96D;" d="M7.451,78.52c12.021-10.16,26.142-17.406,39.696-25.245c7.412-4.287,14.646-8.879,21.991-13.282
			c7.784-4.666,15.621-9.242,23.543-13.67c3.918-2.19,7.857-4.344,11.82-6.452c3.74-1.99,7.467-4.059,11.381-5.693
			c7.539-3.149,15.598-4.802,23.672-5.848c8.433-1.093,16.953-1.632,25.437-2.145c4.96-0.3,9.923-0.536,14.888-0.716
			c-12.023-0.605-24.034-0.972-36.075-0.56c-6.429,0.22-12.881,0.543-19.257,1.421c-0.146,0.02-0.293,0.042-0.439,0.062
			c-7.846,3.75-15.433,7.991-23.043,12.222c-8.882,4.939-17.877,9.671-26.697,14.724c-8.724,4.999-17.323,10.217-25.739,15.72
			c-8.617,5.633-17.053,11.545-25.402,17.566c-3.335,2.405-6.659,4.806-10.05,7.131c-2.051,1.406-4.873,3.107-6.399,5.352
			C7.003,78.912,7.223,78.712,7.451,78.52z"/>
		<path style="fill:#FFD96D;" d="M223.692,172.524c-0.124,0.899-0.279,1.793-0.443,2.686c1.51-0.138,3.022-0.257,4.535-0.339
			c0.469-0.025,0.561,0.272,0.46,0.593c1.258-0.249,2.484-0.612,3.614-1.001c1.046-0.359,2.082-0.773,3.102-1.231
			c0.055-0.355,0.387-0.77,0.759-0.815c0.457-0.056,0.917-0.132,1.373-0.229c2.039-1.076,3.984-2.336,5.754-3.765
			c0.106-0.086,0.22-0.117,0.333-0.126c0.845-1.076,1.546-2.282,2.113-3.526c1.634-3.588,2.484-7.505,3.124-11.377
			c0.638-3.856,1.102-7.742,1.701-11.604c1.084-6.983,2.149-13.969,3.143-20.966c1.984-13.966,3.797-27.998,4.784-42.074
			c0.489-6.976,0.816-13.963,0.862-20.957c0.017-2.613-0.002-5.226-0.001-7.839c0.001-2.149-0.025-4.312-0.347-6.441
			c-0.645-4.261-2.535-7.99-6.954-9.231c-4.645-1.305-8.989,1.153-13.543,1.557c-1.383,0.565-2.788,1.02-4.243,1.387
			c-3.468,0.874-7.012,1.384-10.52,2.064c-3.641,0.706-7.229,1.683-10.837,2.538c-7.714,1.828-15.464,3.478-23.219,5.117
			c-15.553,3.286-31.108,6.567-46.669,9.819c-15.629,3.265-31.264,6.5-46.912,9.677c-15.491,3.145-31.051,5.996-46.423,9.69
			c-7.585,1.823-15.159,3.674-22.799,5.256c-3.691,0.764-7.322,1.772-10.977,2.684c-1.731,0.432-3.481,0.784-5.255,0.989
			c-0.835,0.096-1.694,0.234-2.534,0.244c-0.232,0.003-0.576-0.06-0.89-0.076c-0.042,0.056-0.092,0.109-0.153,0.152
			c1.042,3.43,2.258,6.764,2.762,10.334c0.641,4.537,1.009,9.105,1.294,13.679c0.165-4.015,0.708-8.042,2.455-11.642
			c1.167-2.404,2.933-4.453,5.144-5.954c3.006-2.04,6.672-2.903,10.104-3.936c17.243-5.188,34.907-8.768,52.496-12.55
			c8.88-1.91,17.721-3.999,26.628-5.783c8.942-1.79,17.923-3.376,26.909-4.923c17.451-3.004,34.889-5.95,52.162-9.869
			c15.723-3.567,31.955-7.456,48.195-6.561c0.346,0.019,0.548,0.256,0.584,0.584c0.313,2.775,0.016,5.527-0.374,8.278
			c-0.046,0.323-0.442,0.473-0.719,0.408c-5.992-1.405-12.316-0.02-17.451,3.289c-4.55,2.932-8.122,7.384-9.647,12.606
			c-1.237,4.235-1.532,9.005,1.382,12.643c2.448,3.057,6.329,4.596,10.042,5.449c4.133,0.949,8.43,1.121,12.652,0.889
			c0.336-0.019,0.56,0.283,0.584,0.585c0.603,7.425-0.997,14.89-2.15,22.187c-1.271,8.037-1.154,16.208-2.462,24.234
			c-0.066,0.404-0.554,0.492-0.858,0.349c-5.977-2.812-12.985-2.497-19.095-0.273c-5.357,1.95-10.362,5.504-13.383,10.405
			c-2.939,4.767-3.803,11.299-1.168,16.421c2.522,4.901,8.919,6.036,13.889,6.372c5.516,0.374,11.044-0.184,16.52-0.815
			C223.55,171.735,223.738,172.194,223.692,172.524z"/>
		<g>
			<path style="fill:#FFEC88;" d="M240.627,119.125c-0.861-0.358-1.615-1.017-1.969-1.892c-0.386-0.956-0.259-2.048,0.098-2.993
				c0.102-0.27,0.229-0.526,0.377-0.766c0.041-0.066,0.086-0.129,0.135-0.188c0.696-0.845,1.635-1.386,2.726-1.556
				c0.391-0.061,0.792-0.071,1.189-0.033c0.034,0.004,0.068,0.008,0.101,0.013c0.033,0.004,0.066,0.009,0.1,0.014
				c0.247,0.039,0.491,0.094,0.734,0.16c0.342,0.104,0.674,0.243,0.98,0.424c1.823,1.079,2.074,3.647,0.946,5.323
				C244.868,119.377,242.53,119.916,240.627,119.125z"/>
			<path style="opacity:0.48;fill:#FCBC39;" d="M239.117,118.009c0.176,0.219,0.415,0.383,0.682,0.471
				c0.202,0.066,0.41,0.116,0.625,0.146c0.62,0.088,1.248,0.016,1.84-0.172c-0.662-0.03-1.3-0.2-1.888-0.567
				c-0.128-0.08-0.085-0.309,0.081-0.299c0.861,0.053,1.691-0.195,2.386-0.704c1.091-0.798,1.829-2.202,1.783-3.562
				c-0.005-0.155-0.022-0.31-0.053-0.462c-0.428-0.411-0.753-0.723-1.182-1.134c-0.003,0-0.005-0.001-0.008-0.001
				c-0.033-0.005-0.066-0.01-0.1-0.014c-0.034-0.005-0.068-0.009-0.101-0.013c-0.398-0.038-0.799-0.028-1.189,0.033
				c-1.091,0.17-2.03,0.711-2.726,1.556c-0.049,0.06-0.095,0.123-0.135,0.188c-0.149,0.24-0.276,0.496-0.377,0.766
				c-0.357,0.946-0.484,2.037-0.098,2.993C238.772,117.516,238.929,117.775,239.117,118.009z"/>
		</g>
	</g>
	<path style="fill:#FFD96D;" d="M85.194,54.637c-1.79-2.278-5.072-1.946-7.453-0.616c-0.981,0.327-1.908,0.87-2.451,1.745
		c-0.36,0.579-0.526,1.377-0.268,2.028c0.268,0.679,0.826,1.083,1.496,1.326c1.313,0.475,2.893,0.196,4.191-0.197
		c0.948-0.287,1.822-0.643,2.675-1.148c0.66-0.391,1.372-0.946,1.727-1.642C85.338,55.686,85.553,55.093,85.194,54.637z"/>
	<g>
		<path style="fill:#FFD96D;" d="M95.302,51.945c0,0-0.13-0.284-0.13-0.284c-0.03-0.043-0.014-0.014-0.112-0.111
			c-0.029-0.028-0.071-0.081-0.114-0.111c-0.011-0.008-0.281-0.132-0.293-0.136c-0.049-0.015-0.773-0.113-0.17-0.025
			c-0.116-0.031-0.233-0.033-0.35-0.006l0.179-0.018c-0.071,0.005-0.302,0.024-0.372,0.037c-0.004,0.001-0.007,0.001-0.011,0.002
			c-0.009,0.002-0.019,0.004-0.028,0.007c-0.148,0.041-0.295,0.092-0.44,0.142c-0.069,0.024-0.137,0.051-0.205,0.078
			c-0.163,0.065-0.316,0.15-0.472,0.229c-0.019,0.01-0.038,0.018-0.057,0.028c-0.011,0.004-0.023,0.007-0.034,0.011
			c-0.008,0.004-0.016,0.007-0.024,0.011c-0.122,0.061-0.241,0.129-0.357,0.202c-0.177,0.123-0.324,0.276-0.439,0.457
			c-0.101,0.158-0.16,0.331-0.177,0.518c-0.013,0.17,0.028,0.326,0.122,0.468c0.101,0.137,0.233,0.229,0.398,0.274
			c0.055,0.013,0.111,0.021,0.167,0.029c0.11,0.016,0.22,0.032,0.33,0.048c0.025,0.012,0.04,0.039,0.068,0.047
			c0.047,0.026,0.096,0.048,0.145,0.067c0.214,0.076,0.322,0.051,0.518,0.032c0.061-0.006,0.121-0.012,0.182-0.018
			c0.125-0.04,0.249-0.081,0.374-0.121c0.008-0.003,0.017-0.006,0.025-0.008c0.015-0.005,0.031-0.011,0.047-0.017
			c0.022-0.008,0.044-0.017,0.065-0.027c0.302-0.144,0.347-0.182,0.557-0.362c0.083-0.071,0.114-0.088,0.164-0.141
			c0.001-0.001,0.243-0.312,0.243-0.313c0.026-0.04,0.135-0.371,0.223-0.638c0.002-0.012,0.006-0.029,0.006-0.031
			C95.33,52.259,95.303,51.95,95.302,51.945z"/>
		<path style="fill:#FFD96D;" d="M95.324,52.295c-0.014,0.072-0.061,0.296-0.063,0.305C95.532,51.661,95.45,51.912,95.324,52.295z"
			/>
	</g>
	<path style="fill:#FFD96D;" d="M43.907,64.324c0.004-0.18-0.049-0.344-0.16-0.494c-0.145-0.197-0.335-0.328-0.571-0.394
		c-0.134-0.044-0.27-0.084-0.409-0.111c-0.322-0.061-0.562-0.074-0.877-0.042c-0.323,0.032-0.537,0.07-0.859,0.21
		c-0.179,0.077-0.353,0.174-0.511,0.284c-0.015,0.011-0.029,0.021-0.044,0.032c-0.125,0.094-0.292,0.231-0.4,0.343
		c-0.007,0.007-0.011,0.015-0.018,0.021c-0.301,0.158-0.537,0.398-0.741,0.669c-0.182,0.241-0.292,0.532-0.413,0.807
		c-0.127,0.289-0.061,0.792,0.255,0.948c0.266,0.131,0.517,0.248,0.797,0.301c0.142,0.097,0.297,0.151,0.465,0.159
		c0.186,0.042,0.372,0.037,0.56-0.012c0.308-0.075,0.588-0.228,0.84-0.419c0.105-0.042,0.211-0.081,0.309-0.135
		c0.22-0.12,0.446-0.237,0.65-0.383c0.218-0.155,0.418-0.337,0.616-0.516c0.201-0.208,0.351-0.447,0.449-0.719
		C43.919,64.693,43.94,64.51,43.907,64.324z"/>
	<path style="fill:#FFD96D;" d="M172.313,32.222c-0.542-1.032-1.778-1.323-2.856-1.334c-1.488-0.016-2.975,0.382-4.366,0.876
		c-0.684,0.243-1.346,0.541-1.948,0.924c-0.955,0.358-1.824,0.931-2.493,1.73c-0.491,0.586-0.933,1.333-0.725,2.127
		c0.172,0.657,0.815,1.057,1.416,1.262c1.178,0.4,2.573,0.307,3.789,0.156c0.897-0.112,1.791-0.333,2.653-0.602
		c1.137-0.354,2.329-0.762,3.275-1.512C172.161,34.974,173.047,33.618,172.313,32.222z"/>
	<path style="fill:#FFD96D;" d="M184.495,31.021c0.024-0.19-0.011-0.365-0.105-0.524c-0.032-0.12-0.099-0.216-0.201-0.287
		c-0.074-0.101-0.171-0.168-0.292-0.201c-0.109-0.069-0.228-0.104-0.357-0.104c-0.202-0.045-0.406-0.041-0.61,0.013
		c-0.398,0.118-0.518,0.148-0.87,0.385c-0.002,0.001-0.004,0.003-0.006,0.004c-0.001,0.001-0.002,0.002-0.003,0.002
		c-0.123,0.106-0.246,0.211-0.369,0.317c-0.004,0.004-0.008,0.007-0.012,0.012c-0.109,0.122-0.214,0.251-0.302,0.39
		c-0.004,0.006-0.008,0.013-0.012,0.019c-0.074,0.132-0.165,0.263-0.196,0.409c-0.09,0.25-0.107,0.504-0.049,0.763
		c0.051,0.111,0.101,0.222,0.152,0.333c0.152,0.207,0.352,0.345,0.6,0.414c0.202,0.062,0.405,0.074,0.609,0.036
		c0.229-0.007,0.448-0.062,0.656-0.164c0.235-0.095,0.441-0.231,0.62-0.405c0.192-0.143,0.35-0.319,0.473-0.528
		c0.153-0.239,0.242-0.499,0.267-0.78c0-0.002-0.002-0.026-0.004-0.058C184.488,31.052,184.492,31.037,184.495,31.021z"/>
	<path style="fill:#FFD96D;" d="M232.019,19.536c-0.631-0.068-1.277-0.02-1.902,0.084c-0.472,0.079-0.953,0.222-1.408,0.406
		c-0.304-0.013-0.612,0.009-0.916,0.066c-1.432,0.266-2.681,1.186-3.507,2.361c-0.217,0.309-0.378,0.957-0.071,1.273
		c0.575,0.594,1.219,0.848,2.052,0.886c0.72,0.033,1.454-0.1,2.139-0.314c1.37-0.43,2.736-1.046,3.88-1.926
		c0.553-0.425,1.042-1.038,0.979-1.775C233.206,19.905,232.656,19.604,232.019,19.536z"/>
	<path style="fill:#FFD96D;" d="M134.47,11.573c-0.046-0.1-0.092-0.201-0.138-0.301c-0.079-0.078-0.158-0.155-0.236-0.232
		c-0.148-0.104-0.31-0.16-0.486-0.168c-0.188-0.042-0.378-0.038-0.568,0.012c-0.192,0.059-0.383,0.113-0.564,0.199
		c-0.088,0.041-0.174,0.085-0.26,0.13c-0.044,0.023-0.088,0.046-0.131,0.07c-0.02,0.011-0.039,0.022-0.059,0.033
		c-0.119,0.066-0.318,0.161-0.429,0.242l-0.002,0.001c-0.02,0.006-0.04,0.011-0.061,0.018c-0.217,0.07-0.312,0.124-0.534,0.258
		c-0.025,0.015-0.049,0.03-0.074,0.045c-0.09,0.077-0.18,0.155-0.27,0.232c-0.12,0.116-0.21,0.25-0.271,0.402
		c-0.055,0.086-0.087,0.179-0.096,0.28c-0.033,0.09-0.038,0.181-0.018,0.274c-0.007,0.092,0.015,0.176,0.066,0.253
		c0.042,0.128,0.122,0.229,0.242,0.303c0.025,0.012,0.049,0.025,0.074,0.037c0.036,0.017,0.072,0.033,0.108,0.05
		c0.033,0.039,0.061,0.082,0.103,0.114c0.111,0.136,0.256,0.224,0.434,0.264c0.253,0.067,0.507,0.071,0.762,0.014
		c0.206-0.037,0.386-0.121,0.56-0.217c0.167-0.09,0.338-0.174,0.491-0.286c0.06-0.044,0.12-0.087,0.181-0.129
		c0.086-0.059,0.173-0.117,0.262-0.171c0.033-0.02,0.068-0.04,0.101-0.059c0.114-0.098,0.228-0.195,0.341-0.293
		c0.152-0.146,0.266-0.316,0.343-0.508c0.069-0.108,0.11-0.226,0.121-0.354C134.515,11.918,134.518,11.747,134.47,11.573z"/>
	<path style="fill:#FFD96D;" d="M123.586,17.027c-0.06-0.142-0.116-0.301-0.213-0.424c-0.091-0.116-0.217-0.258-0.339-0.339
		c-0.415-0.276-0.913-0.222-1.366-0.1c-0.667,0.18-1.334,0.376-1.983,0.613c-0.277,0.101-0.549,0.216-0.809,0.355
		c-0.407,0.218-0.815,0.439-1.167,0.741c-0.262,0.224-0.526,0.44-0.709,0.738c-0.193,0.314-0.301,0.666-0.269,1.034
		c-0.009,0.113,0.02,0.217,0.07,0.314c-0.005,0.077-0.016,0.156-0.01,0.232c-0.005,0.211,0.057,0.403,0.187,0.578
		c0.169,0.231,0.392,0.384,0.668,0.461c0.175,0.03,0.35,0.053,0.524,0.07c0.008,0.003,0.014,0.008,0.022,0.01
		c0.549,0.225,1.19,0.118,1.723-0.095c0.091-0.036,0.183-0.088,0.275-0.14c0.444-0.152,0.827-0.331,1.252-0.588
		c0.36-0.218,0.689-0.509,0.984-0.805c0.25-0.251,0.463-0.592,0.563-0.955c0.028-0.031,0.058-0.06,0.085-0.092
		c0.199-0.239,0.403-0.485,0.503-0.785C123.663,17.596,123.692,17.278,123.586,17.027z"/>
	<path style="fill:#FFEC88;" d="M99.98,53.802c-5.696,1.486-11.51,2.447-17.27,3.646c-5.794,1.206-11.567,2.505-17.329,3.855
		c-11.398,2.672-22.742,5.565-34.148,8.205c-3.119,0.722-6.278,1.396-9.353,2.289c-2.923,0.849-5.296,2.487-7.841,4.064
		c-0.182,0.113-0.335,0.43-0.117,0.588c1.934,1.394,4.433-0.666,6.355-1.214c2.638-0.751,5.379-1.198,8.049-1.825
		c5.772-1.355,11.546-2.688,17.305-4.098C57.116,66.5,68.606,63.7,80.175,61.251c6.524-1.381,13.13-2.438,19.587-4.117
		c0.943-0.245,1.952-1.017,2.01-2.069C101.826,54.09,100.85,53.575,99.98,53.802z"/>
	<path style="fill:#FFEC88;" d="M110.244,51.635c-0.295-0.203-0.599-0.28-0.956-0.285c-0.098-0.001-0.196-0.004-0.294-0.006
		c-0.251-0.007-0.501,0.02-0.75,0.051c-0.074,0.005-0.148,0.011-0.22,0.027c-0.016,0.002-0.033,0.004-0.049,0.006
		c0,0.003,0,0.006-0.001,0.008c-0.078,0.019-0.156,0.036-0.232,0.067c-0.25,0.064-0.479,0.174-0.687,0.332
		c-0.219,0.142-0.401,0.32-0.547,0.533c-0.153,0.169-0.264,0.364-0.337,0.582c-0.052,0.081-0.114,0.157-0.144,0.251
		c-0.019,0.092-0.038,0.184-0.057,0.276c-0.012,0.152,0.026,0.291,0.096,0.422c-0.021-0.046-0.042-0.093-0.064-0.139
		c0.029,0.145,0.073,0.291,0.159,0.414c0.157,0.225,0.373,0.306,0.618,0.406c0.229,0.094,0.497,0.138,0.739,0.137
		c0.203,0,0.409-0.022,0.611-0.06c0.009,0,0.018,0,0.027,0c0.403-0.009,0.782-0.072,1.143-0.262c0.316-0.14,0.595-0.336,0.835-0.585
		c0.218-0.225,0.381-0.485,0.487-0.78C110.787,52.526,110.708,51.954,110.244,51.635z"/>
</g>
</svg>
